<svg width="227" height="227" viewBox="0 0 227 227" fill="none" xmlns="http://www.w3.org/2000/svg">
<path d="M94.5833 28.375C91.9035 28.375 89.6587 27.467 87.849 25.651C86.0393 23.835 85.1313 21.5903 85.125 18.9167C85.1187 16.2432 86.0267 13.9984 87.849 12.1824C89.6713 10.3664 91.9161 9.45837 94.5833 9.45837H132.417C135.097 9.45837 137.344 10.3664 139.16 12.1824C140.976 13.9984 141.881 16.2432 141.875 18.9167C141.869 21.5903 140.961 23.8382 139.151 25.6605C137.341 27.4828 135.097 28.3877 132.417 28.375H94.5833ZM113.5 132.417C116.18 132.417 118.428 131.509 120.244 129.693C122.06 127.877 122.965 125.632 122.958 122.958V85.125C122.958 82.4452 122.05 80.2004 120.234 78.3907C118.418 76.581 116.174 75.673 113.5 75.6667C110.826 75.6604 108.582 76.5684 106.766 78.3907C104.95 80.213 104.042 82.4578 104.042 85.125V122.958C104.042 125.638 104.95 127.886 106.766 129.702C108.582 131.518 110.826 132.423 113.5 132.417ZM113.5 208.083C101.835 208.083 90.8378 205.839 80.5093 201.349C70.1808 196.859 61.1576 190.749 53.4396 183.019C45.7216 175.288 39.6147 166.262 35.1188 155.94C30.6229 145.617 28.375 134.624 28.375 122.958C28.375 111.293 30.6229 100.296 35.1188 89.9677C39.6147 79.6392 45.7216 70.616 53.4396 62.898C61.1576 55.18 70.184 49.073 80.5188 44.5772C90.8536 40.0813 101.847 37.8334 113.5 37.8334C123.274 37.8334 132.653 39.4098 141.639 42.5625C150.624 45.7153 159.058 50.2868 166.94 56.2771L173.56 49.6563C175.294 47.9223 177.501 47.0553 180.181 47.0553C182.861 47.0553 185.068 47.9223 186.802 49.6563C188.536 51.3903 189.403 53.5973 189.403 56.2771C189.403 58.957 188.536 61.1639 186.802 62.898L180.181 69.5188C186.172 77.4007 190.743 85.8344 193.896 94.8198C197.049 103.805 198.625 113.185 198.625 122.958C198.625 134.624 196.377 145.621 191.881 155.949C187.385 166.278 181.278 175.301 173.56 183.019C165.842 190.737 156.816 196.847 146.481 201.349C136.146 205.851 125.153 208.096 113.5 208.083Z" fill="#F5F5F5"/>
</svg>
