<svg width="204" height="60" viewBox="0 0 204 60" fill="none" xmlns="http://www.w3.org/2000/svg">
<path d="M25 7.5C24.2917 7.5 23.6983 7.26 23.22 6.78C22.7417 6.3 22.5017 5.70667 22.5 5C22.4983 4.29333 22.7383 3.7 23.22 3.22C23.7017 2.74 24.295 2.5 25 2.5H35C35.7083 2.5 36.3025 2.74 36.7825 3.22C37.2625 3.7 37.5017 4.29333 37.5 5C37.4983 5.70667 37.2583 6.30083 36.78 6.7825C36.3017 7.26417 35.7083 7.50333 35 7.5H25ZM30 35C30.7083 35 31.3025 34.76 31.7825 34.28C32.2625 33.8 32.5017 33.2067 32.5 32.5V22.5C32.5 21.7917 32.26 21.1983 31.78 20.72C31.3 20.2417 30.7067 20.0017 30 20C29.2933 19.9983 28.7 20.2383 28.22 20.72C27.74 21.2017 27.5 21.795 27.5 22.5V32.5C27.5 33.2083 27.74 33.8025 28.22 34.2825C28.7 34.7625 29.2933 35.0017 30 35ZM30 55C26.9167 55 24.01 54.4067 21.28 53.22C18.55 52.0333 16.165 50.4183 14.125 48.375C12.085 46.3317 10.4708 43.9458 9.2825 41.2175C8.09417 38.4892 7.5 35.5833 7.5 32.5C7.5 29.4167 8.09417 26.51 9.2825 23.78C10.4708 21.05 12.085 18.665 14.125 16.625C16.165 14.585 18.5508 12.9708 21.2825 11.7825C24.0142 10.5942 26.92 10 30 10C32.5833 10 35.0625 10.4167 37.4375 11.25C39.8125 12.0833 42.0417 13.2917 44.125 14.875L45.875 13.125C46.3333 12.6667 46.9167 12.4375 47.625 12.4375C48.3333 12.4375 48.9167 12.6667 49.375 13.125C49.8333 13.5833 50.0625 14.1667 50.0625 14.875C50.0625 15.5833 49.8333 16.1667 49.375 16.625L47.625 18.375C49.2083 20.4583 50.4167 22.6875 51.25 25.0625C52.0833 27.4375 52.5 29.9167 52.5 32.5C52.5 35.5833 51.9058 38.49 50.7175 41.22C49.5292 43.95 47.915 46.335 45.875 48.375C43.835 50.415 41.4492 52.03 38.7175 53.22C35.9858 54.41 33.08 55.0033 30 55Z" fill="#F5F5F5"/>
<path d="M91.147 26.8203H86.4808C86.3956 26.2166 86.2216 25.6804 85.9588 25.2116C85.696 24.7358 85.3587 24.331 84.9467 23.9972C84.5348 23.6634 84.0589 23.4077 83.5192 23.2301C82.9865 23.0526 82.4077 22.9638 81.7827 22.9638C80.6534 22.9638 79.6697 23.2443 78.8317 23.8054C77.9936 24.3594 77.3438 25.169 76.8821 26.2344C76.4205 27.2926 76.1896 28.5781 76.1896 30.0909C76.1896 31.6463 76.4205 32.9531 76.8821 34.0114C77.3509 35.0696 78.0043 35.8686 78.8423 36.4084C79.6804 36.9482 80.6499 37.218 81.7507 37.218C82.3686 37.218 82.9403 37.1364 83.4659 36.973C83.9986 36.8097 84.4709 36.5717 84.8828 36.2592C85.2947 35.9396 85.6357 35.5526 85.9055 35.098C86.1825 34.6435 86.3743 34.125 86.4808 33.5426L91.147 33.5639C91.0263 34.5653 90.7244 35.5312 90.2415 36.4616C89.7656 37.3849 89.1229 38.2124 88.3132 38.9439C87.5107 39.6683 86.5518 40.2436 85.4368 40.6697C84.3288 41.0888 83.0753 41.2983 81.6761 41.2983C79.7301 41.2983 77.9901 40.858 76.456 39.9773C74.929 39.0966 73.7216 37.8217 72.8338 36.1527C71.9531 34.4837 71.5128 32.4631 71.5128 30.0909C71.5128 27.7116 71.9602 25.6875 72.8551 24.0185C73.75 22.3494 74.9645 21.0781 76.4986 20.2045C78.0327 19.3239 79.7585 18.8835 81.6761 18.8835C82.9403 18.8835 84.1122 19.0611 85.1918 19.4162C86.2784 19.7713 87.2408 20.2898 88.0788 20.9716C88.9169 21.6463 89.5987 22.4737 90.1243 23.4538C90.657 24.4339 90.9979 25.5561 91.147 26.8203ZM94.4549 41V19.1818H99.0678V28.1839H108.432V19.1818H113.034V41H108.432V31.9872H99.0678V41H94.4549ZM116.838 41V19.1818H125.446C127.093 19.1818 128.5 19.4766 129.664 20.0661C130.836 20.6484 131.728 21.4759 132.338 22.5483C132.956 23.6136 133.265 24.8672 133.265 26.3089C133.265 27.7578 132.953 29.0043 132.328 30.0483C131.703 31.0852 130.797 31.8807 129.611 32.4347C128.432 32.9886 127.005 33.2656 125.328 33.2656H119.565V29.5582H124.583C125.463 29.5582 126.195 29.4375 126.777 29.196C127.36 28.9545 127.793 28.5923 128.077 28.1094C128.368 27.6264 128.514 27.0263 128.514 26.3089C128.514 25.5845 128.368 24.9737 128.077 24.4766C127.793 23.9794 127.356 23.603 126.767 23.3473C126.184 23.0845 125.449 22.9531 124.561 22.9531H121.451V41H116.838ZM128.62 31.071L134.043 41H128.951L123.645 31.071H128.62ZM156.575 30.0909C156.575 32.4702 156.124 34.4943 155.222 36.1634C154.327 37.8324 153.105 39.1072 151.557 39.9879C150.016 40.8615 148.283 41.2983 146.358 41.2983C144.419 41.2983 142.679 40.858 141.138 39.9773C139.597 39.0966 138.379 37.8217 137.484 36.1527C136.589 34.4837 136.142 32.4631 136.142 30.0909C136.142 27.7116 136.589 25.6875 137.484 24.0185C138.379 22.3494 139.597 21.0781 141.138 20.2045C142.679 19.3239 144.419 18.8835 146.358 18.8835C148.283 18.8835 150.016 19.3239 151.557 20.2045C153.105 21.0781 154.327 22.3494 155.222 24.0185C156.124 25.6875 156.575 27.7116 156.575 30.0909ZM151.898 30.0909C151.898 28.5497 151.667 27.25 151.206 26.1918C150.751 25.1335 150.108 24.331 149.277 23.7841C148.446 23.2372 147.473 22.9638 146.358 22.9638C145.243 22.9638 144.27 23.2372 143.439 23.7841C142.608 24.331 141.962 25.1335 141.5 26.1918C141.046 27.25 140.819 28.5497 140.819 30.0909C140.819 31.6321 141.046 32.9318 141.5 33.9901C141.962 35.0483 142.608 35.8509 143.439 36.3977C144.27 36.9446 145.243 37.218 146.358 37.218C147.473 37.218 148.446 36.9446 149.277 36.3977C150.108 35.8509 150.751 35.0483 151.206 33.9901C151.667 32.9318 151.898 31.6321 151.898 30.0909ZM178.241 19.1818V41H174.257L164.765 27.2678H164.605V41H159.992V19.1818H164.04L173.458 32.9034H173.65V19.1818H178.241ZM202.102 30.0909C202.102 32.4702 201.651 34.4943 200.749 36.1634C199.854 37.8324 198.633 39.1072 197.085 39.9879C195.543 40.8615 193.81 41.2983 191.886 41.2983C189.947 41.2983 188.207 40.858 186.665 39.9773C185.124 39.0966 183.906 37.8217 183.011 36.1527C182.116 34.4837 181.669 32.4631 181.669 30.0909C181.669 27.7116 182.116 25.6875 183.011 24.0185C183.906 22.3494 185.124 21.0781 186.665 20.2045C188.207 19.3239 189.947 18.8835 191.886 18.8835C193.81 18.8835 195.543 19.3239 197.085 20.2045C198.633 21.0781 199.854 22.3494 200.749 24.0185C201.651 25.6875 202.102 27.7116 202.102 30.0909ZM197.425 30.0909C197.425 28.5497 197.195 27.25 196.733 26.1918C196.278 25.1335 195.636 24.331 194.805 23.7841C193.974 23.2372 193.001 22.9638 191.886 22.9638C190.771 22.9638 189.798 23.2372 188.967 23.7841C188.136 24.331 187.489 25.1335 187.028 26.1918C186.573 27.25 186.346 28.5497 186.346 30.0909C186.346 31.6321 186.573 32.9318 187.028 33.9901C187.489 35.0483 188.136 35.8509 188.967 36.3977C189.798 36.9446 190.771 37.218 191.886 37.218C193.001 37.218 193.974 36.9446 194.805 36.3977C195.636 35.8509 196.278 35.0483 196.733 33.9901C197.195 32.9318 197.425 31.6321 197.425 30.0909Z" fill="white"/>
</svg>
